<svg xmlns="http://www.w3.org/2000/svg" width="49.25" height="40" viewBox="0 0 49.25 40"><path d="M44.188,13.349c.031.437.031.875.031,1.313,0,13.344-10.156,28.719-28.719,28.719A28.524,28.524,0,0,1,0,38.85a20.881,20.881,0,0,0,2.437.125,20.215,20.215,0,0,0,12.531-4.312,10.112,10.112,0,0,1-9.438-7,12.729,12.729,0,0,0,1.906.156,10.676,10.676,0,0,0,2.656-.344A10.1,10.1,0,0,1,2,17.568v-.125a10.165,10.165,0,0,0,4.562,1.281,10.109,10.109,0,0,1-3.125-13.5A28.691,28.691,0,0,0,24.25,15.787,11.4,11.4,0,0,1,24,13.475,10.1,10.1,0,0,1,41.469,6.568a19.873,19.873,0,0,0,6.406-2.437,10.066,10.066,0,0,1-4.438,5.562A20.235,20.235,0,0,0,49.25,8.131a21.7,21.7,0,0,1-5.062,5.219Z" transform="translate(0 -3.381)" fill="#eee"/></svg>