<svg xmlns="http://www.w3.org/2000/svg" width="120" height="120" viewBox="0 0 120 120"><path d="M60,.563a60,60,0,1,0,60,60A59.99,59.99,0,0,0,60,.563Zm41.008,81.992c-.847,1.96-4.379,3.387-10.839,4.4a29.73,29.73,0,0,0-1.04,3.847,1.864,1.864,0,0,1-1.96,1.427h-.048c-1.5,0-3.1-.7-6.242-.7-4.258,0-5.734.968-9.048,3.315-3.508,2.492-6.871,4.621-11.9,4.4-5.081.387-9.339-2.71-11.734-4.4C44.855,92.5,43.4,91.53,39.145,91.53c-3.024,0-4.935.75-6.242.75A1.921,1.921,0,0,1,30.9,90.829a30.372,30.372,0,0,0-1.04-3.871c-3.339-.508-10.839-1.815-11.008-5.177a1.712,1.712,0,0,1,1.427-1.79c11.2-1.839,16.234-13.331,16.452-13.815,0-.024.024-.048.048-.073a3.618,3.618,0,0,0,.387-3.024c-.823-1.911-4.331-2.589-5.806-3.194-3.823-1.5-4.355-3.242-4.113-4.427.387-2.056,3.484-3.339,5.3-2.492a9.116,9.116,0,0,0,3.8,1.016,3.392,3.392,0,0,0,1.6-.339c-.339-5.782-1.137-14.032.919-18.653C44.3,22.821,55.815,21.853,59.2,21.853c.145,0,1.476-.024,1.621-.024a21.775,21.775,0,0,1,20.4,13.137c2.056,4.621,1.258,12.847.919,18.653a3.042,3.042,0,0,0,1.379.339,9.545,9.545,0,0,0,3.556-1.016,4.42,4.42,0,0,1,3.29,0,3.367,3.367,0,0,1,2.516,2.879c.024,1.573-1.379,2.927-4.161,4.016-.339.145-.75.266-1.185.411-1.573.508-3.968,1.258-4.6,2.782a3.711,3.711,0,0,0,.387,3.024c.024.024.024.048.048.073.218.484,5.25,11.976,16.452,13.815A1.858,1.858,0,0,1,101.008,82.554Z" transform="translate(0 -0.563)"/></svg>