<svg xmlns="http://www.w3.org/2000/svg" width="120" height="154.427" viewBox="0 0 120 154.427"><path d="M24.572,105.537c-2.036-4.448-2.161-5.732,2.318-7.236,8.019-2.506,2.506,2.882,13.532,15.411h.094V84.3c.376-15.724,13.782-28.88,30.6-28.88a30.507,30.507,0,0,1,30.6,30.321c0,19.859-19.044,35.458-40.25,29.224-3.289-1.316-.658-9.929,2.662-8.958,16.6,0,28-3.164,28-20.172,0-19.107-24.15-28.065-36.617-13.97-7.361,8.269-5.513,13.187-5.513,49.365,15.881,9.71,37.055,6.891,50.242-6.3A41.352,41.352,0,0,0,41.643,56.579,97.852,97.852,0,0,0,35,64.066l-.157.188c-1.034,1.472-1.973,2.85-6.3,1.911-2.161-.532-4.479-1.817-4.479-3.7V3.957A3.282,3.282,0,0,1,27.36.668h75.582c2.6,0,2.6,3.633,2.6,4.73,0,1.222,0,4.73-2.6,4.73H33.029V51.756h.094C65.762,17.363,121.7,40.479,121.7,85.866,121.7,141.653,45.026,154.871,24.572,105.537ZM44.4,23.847c-.157,1.316,1.441,7.674,4.573,6.453,39.091-14.878,63.523,12.654,65.59,12.654,1.5,0,7.142-4.792,4.479-7.142C89.849,7.935,45.59,17.958,44.4,23.847Zm70.915,103.742C80.859,162.013,21.659,146.633,11.322,94.95c0-3.821-9.522-2.318-9.052,1.034C9.788,150.3,79.325,176.453,121.8,133.979c2.161-2.443-3.947-8.9-6.484-6.39ZM59.121,93.729c0,1.253,1.347,2.287,1.723,2.662a4.061,4.061,0,0,0,2.662,1.378c1.19,0,.814.063,6.985-6.108,6.139,6.045,5.983,6.108,6.985,6.108,1.691,0,5.795-3.258,3.352-5.7L75.409,86.65l5.7-5.7c1.973-2.13-3.164-6.828-5.074-4.918l-5.607,5.607c-5.826-5.889-5.763-6.108-6.734-6.108-1.566,0-5.638,3.665-3.884,5.419l5.7,5.7C59.842,92.256,59.121,92.664,59.121,93.729Z" transform="translate(-2.253 -0.668)"/></svg>