<svg xmlns="http://www.w3.org/2000/svg" width="63.805" height="40" viewBox="0 0 63.805 40"><path d="M25.7,23.225c3.523-1.684,5.361-4.232,5.361-8.2,0-7.821-5.827-9.726-12.551-9.726H0V44.559H19.031c7.134,0,13.836-3.423,13.836-11.4C32.866,28.232,30.529,24.587,25.7,23.225ZM8.629,12h8.1c3.113,0,5.915.875,5.915,4.486,0,3.334-2.182,4.675-5.262,4.675H8.629V12Zm9.227,25.888H8.629V27.079h9.4c3.8,0,6.2,1.584,6.2,5.605C24.237,36.65,21.368,37.891,17.857,37.891ZM57.569,11.228H41.651V7.362H57.569v3.866Zm6.237,19.529c0-8.408-4.918-15.42-13.836-15.42-8.662,0-14.544,6.513-14.544,15.043C35.425,39.231,41,45.3,49.97,45.3c6.79,0,11.188-3.057,13.3-9.56h-6.89c-.742,2.426-3.8,3.711-6.17,3.711-4.575,0-6.979-2.681-6.979-7.233h20.5C63.772,31.754,63.805,31.256,63.805,30.757ZM43.246,27.3a6.1,6.1,0,0,1,6.48-6.07c3.921,0,5.893,2.3,6.225,6.07Z" transform="translate(0 -5.302)" fill="#eee"/></svg>