<svg xmlns="http://www.w3.org/2000/svg" width="72.185" height="65.586" viewBox="0 0 72.185 65.586"><g transform="translate(-8.752 0)"><path d="M15.476,41.42a2.7,2.7,0,0,0,.642-2.326C9.758,6.264,47.363-11.766,70.709,8.618a.94.94,0,0,0,.954.172l6.748-2.563a.116.116,0,0,1,.119.193l-8.455,7.812a.082.082,0,0,0,.091.135l5.181-2.425a.1.1,0,0,1,.109.152l-6.474,6.757a.049.049,0,0,0,.062.075l10.809-6.913a.107.107,0,0,1,.145.151l-2.713,3.9a.992.992,0,0,0-.091.972c17.554,39.385-30.969,65.829-55.564,35.2a.9.9,0,0,0-1.012-.28l-3.475,1.3a.108.108,0,0,1-.12-.172L22.5,46.728a.125.125,0,0,0-.137-.2l-4.316,1.577a.254.254,0,0,1-.294-.386l4.53-6.382a.128.128,0,0,0-.17-.184L8.936,49.035a.121.121,0,0,1-.152-.185l6.693-7.43Z" transform="translate(0 0)" fill-rule="evenodd" id="circle"/><g transform="translate(28.328 17.239)"><path d="M352.769,319.154l-7.122,2.344s-.031,2.916-.056,5.3a3,3,0,0,0,3.025,3.027l12.368-.122a2.511,2.511,0,0,0,2.486-2.514c-.01-7.683-.041-30.509-.041-30.509l-7.21-.044.044,29.592-3.494-.089Z" transform="translate(-345.591 -296.639)" fill="#fff" id="j" fill-rule="evenodd"/><path d="M692.8,296.843a2.979,2.979,0,0,0-2.991,3c.034,6.37.113,21.147.146,27.348a2.84,2.84,0,0,0,2.834,2.825l12.256.024a2.683,2.683,0,0,0,2.689-2.683V299.521a2.63,2.63,0,0,0-2.619-2.63Z" transform="translate(-669.807 -296.831)" fill="#fff" fill-rule="evenodd" id="o"/><path d="M759.689,358.99l6.688-.071v25.938h-3.433l-.035-24.771Z" transform="translate(-735.623 -355.299)" fill-rule="evenodd" id="in-o"/></g></g></svg>